<?xml version="1.0" standalone="no"?>
<!DOCTYPE svg PUBLIC "-//W3C//DTD SVG 1.1//EN" "http://www.w3.org/Graphics/SVG/1.1/DTD/svg11.dtd" >
<svg xmlns="http://www.w3.org/2000/svg" xmlns:xlink="http://www.w3.org/1999/xlink" version="1.1">
<metadata></metadata>
<defs>
<font id="frutigernextltmedium_italic" horiz-adv-x="1150" >
<font-face units-per-em="2048" ascent="1638" descent="-410" />
<missing-glyph horiz-adv-x="575" />
<glyph horiz-adv-x="0" />
<glyph horiz-adv-x="682" />
<glyph unicode=" "  horiz-adv-x="575" />
<glyph unicode="&#x09;" horiz-adv-x="575" />
<glyph unicode="&#xa0;" horiz-adv-x="575" />
<glyph unicode="!" horiz-adv-x="571" d="M33 0l45 211h215l-43 -211h-217zM135 367l178 999h238l-246 -999h-170z" />
<glyph unicode="&#x22;" horiz-adv-x="884" d="M250 940l90 426h160l-90 -426h-160zM559 940l90 426h160l-92 -426h-158z" />
<glyph unicode="#" d="M41 416l29 131h170l67 274h-170l29 131h170l100 414h139l-100 -414h328l98 414h139l-98 -414h170l-29 -131h-172l-67 -274h172l-29 -131h-172l-98 -416h-137l98 416h-328l-100 -416h-137l98 416h-170zM379 547h328l67 274h-328z" />
<glyph unicode="$" d="M53 37l53 180q59 -34 141 -56.5t161 -21.5q138 2 233.5 71.5t95.5 188.5q0 47 -27.5 87.5t-71 71t-96.5 60.5t-106.5 63.5t-97 72t-71 94t-27.5 121.5q0 173 122 279t316 130l45 207h135l-43 -199q150 0 272 -45l-49 -174q-130 58 -260 58q-51 0 -105 -13.5t-103.5 -39.5 t-81 -72.5t-31.5 -104.5q0 -41 27.5 -77t71.5 -64.5t97 -57t106.5 -63t97.5 -74.5t71.5 -99t27.5 -130q0 -179 -124.5 -301.5t-329.5 -144.5l-43 -205h-137l43 198q-179 3 -312 60z" />
<glyph unicode="%" horiz-adv-x="1947" d="M139 809q0 74 15.5 151.5t50.5 154.5t84.5 136.5t123.5 97t162 37.5q123 0 186.5 -69t63.5 -184q0 -78 -14 -156.5t-47.5 -158t-82 -139.5t-125 -98t-169.5 -38q-125 0 -186.5 73t-61.5 193zM293 793q0 -148 117 -148q65 0 118.5 57.5t83 140.5t45 161.5t15.5 134.5 q0 147 -117 147q-65 0 -118.5 -57.5t-83 -140.5t-45 -161t-15.5 -134zM471 -49l866 1464h142l-869 -1464h-139zM1124 244q0 61 11.5 125.5t34 129.5t59.5 122.5t84 102.5t111.5 71t138.5 26q123 0 186 -69.5t63 -184.5q0 -78 -14 -156.5t-47.5 -158t-82 -139.5t-125 -98 t-169.5 -38q-125 0 -187.5 74t-62.5 193zM1278 227q0 -147 119 -147q65 0 118.5 57.5t83 140.5t45 161t15.5 134q0 148 -117 148q-53 0 -98.5 -38.5t-75 -97t-51 -127.5t-30.5 -128.5t-9 -102.5z" />
<glyph unicode="&#x26;" horiz-adv-x="1376" d="M53 283q0 176 116.5 288t295.5 138q-102 11 -170 74.5t-68 152.5q0 91 35.5 167t95 127t138 87t162.5 52.5t171 16.5q170 0 328 -55l-45 -164q-131 68 -315 68q-93 0 -174 -31.5t-135 -98.5t-54 -157q0 -53 24.5 -88.5t68.5 -51t84.5 -21t93.5 -5.5h245l33 148h201 l-31 -148h207l-33 -147h-207l-127 -596q-103 -28 -232.5 -45t-228.5 -17q-101 0 -185 17t-151.5 52.5t-105 96t-37.5 140.5zM270 319q0 -69 41.5 -112.5t105 -60.5t150.5 -17q127 0 254 37l99 469h-246q-78 0 -148.5 -19t-128.5 -56t-92.5 -99t-34.5 -142z" />
<glyph unicode="'" horiz-adv-x="575" d="M250 940l90 426h160l-90 -426h-160z" />
<glyph unicode="(" horiz-adv-x="575" d="M92 373q0 130 27.5 257t70.5 233.5t111 219t134 201.5t153 193h153q-84 -114 -141.5 -199t-125 -204t-108 -222.5t-68.5 -230.5t-28 -252q0 -154 31 -301.5t90 -329.5h-151q-148 354 -148 635z" />
<glyph unicode=")" horiz-adv-x="575" d="M-188 -262q64 87 102 141t96 141.5t93 151.5t76.5 152.5t64 165t38 167.5t15.5 181q0 103 -20.5 221.5t-44 203t-64.5 214.5h154q151 -372 151 -639q0 -129 -28.5 -256.5t-72.5 -232t-115 -218.5t-135.5 -200t-154.5 -193h-155z" />
<glyph unicode="*" horiz-adv-x="858" d="M150 1061l47 149l233 -106l-20 262h155l-22 -262l233 106l47 -149l-243 -72l157 -221l-131 -82l-121 236l-120 -236l-132 82l162 221z" />
<glyph unicode="+" d="M23 432v160h438v432h168v-432h440v-160h-440v-432h-168v432h-438z" />
<glyph unicode="," horiz-adv-x="575" d="M-96 -262l219 473h207l-273 -473h-153z" />
<glyph unicode="-" horiz-adv-x="667" d="M61 551l35 168h498l-35 -168h-498z" />
<glyph unicode="." horiz-adv-x="575" d="M43 0l45 211h217l-45 -211h-217z" />
<glyph unicode="/" horiz-adv-x="620" d="M-115 0l678 1366h174l-680 -1366h-172z" />
<glyph unicode="0" d="M66 420q0 99 17 205t50.5 215.5t88.5 206.5t125.5 173.5t167.5 121t208 44.5q124 0 208.5 -56t122.5 -148t38 -215q0 -89 -10.5 -181.5t-34.5 -190t-59.5 -186.5t-89.5 -168.5t-119.5 -137.5t-154 -92t-190.5 -34q-97 0 -169.5 35t-115 97t-63 140t-20.5 171zM272 395 q0 -262 193 -262q86 0 159 65.5t119.5 163.5t80 215.5t47.5 219t14 176.5q0 258 -191 258q-85 0 -158 -65t-120 -162.5t-81 -214.5t-48.5 -218t-14.5 -176z" />
<glyph unicode="1" d="M264 1090l445 276h184l-285 -1366h-215l242 1141l-287 -203z" />
<glyph unicode="2" d="M-37 0l39 166l354 291q22 18 78 61.5t92 73.5t89 76.5t87.5 87t68.5 88.5t50.5 98t16.5 100q0 82 -73 130.5t-163 48.5q-67 0 -133.5 -16t-102 -31t-110.5 -50l20 176q156 86 396 86q72 0 140.5 -20t126.5 -57t93 -98.5t35 -137.5q0 -58 -14.5 -114t-37.5 -102 t-60.5 -94.5t-72.5 -85t-85 -80t-87.5 -73t-90.5 -70.5t-84 -67l-269 -223h637l-37 -164h-903z" />
<glyph unicode="3" d="M-61 33l51 172q132 -66 327 -66q69 0 137 19.5t125.5 55t93.5 94.5t36 130q0 47 -29.5 84.5t-76.5 59.5t-100 33.5t-104 11.5h-159l32 153h158q70 0 135.5 14t124 42.5t94 81t35.5 122.5q0 87 -81 138t-187 51q-93 0 -165 -17t-161 -53l23 168q185 59 358 59 q82 0 157.5 -19t138.5 -55.5t100.5 -98t37.5 -138.5q0 -146 -101.5 -248.5t-246.5 -126.5q99 -10 167.5 -85.5t68.5 -172.5q0 -113 -56 -204.5t-147.5 -147t-200.5 -84.5t-223 -29q-217 0 -362 56z" />
<glyph unicode="4" d="M-8 301l41 184l790 881h236l-189 -901h193l-35 -164h-194l-64 -301h-197l66 301h-647zM201 463h475l155 727z" />
<glyph unicode="5" d="M23 31l34 174q145 -66 295 -66q105 0 199.5 39t157.5 118.5t63 182.5q0 109 -84 165t-201 56q-143 0 -321 -53l166 719h774l-37 -162h-575l-95 -389q98 25 203 25q74 0 144.5 -23t126 -64.5t89 -104t33.5 -136.5q0 -129 -53 -233t-143.5 -168.5t-204 -99t-240.5 -34.5 q-150 0 -331 54z" />
<glyph unicode="6" d="M82 408q0 137 24.5 271t81.5 265t140 230t211 160t284 61q78 0 164 -18t150 -46l-54 -157q-52 29 -126.5 47t-141.5 18q-86 1 -159.5 -30t-124.5 -81t-92 -121t-65.5 -142.5t-41.5 -153.5q57 74 149.5 114.5t194.5 40.5q153 0 256.5 -100.5t103.5 -245.5 q0 -247 -156 -395t-401 -148q-118 0 -210 61.5t-139.5 159t-47.5 210.5zM285 377q0 -96 62 -170t157 -74q106 0 181 52.5t108.5 133.5t33.5 181q0 91 -63 154t-160 63q-136 0 -227.5 -100t-91.5 -240z" />
<glyph unicode="7" d="M84 0l815 1192h-733l37 174h944l-37 -172l-780 -1194h-246z" />
<glyph unicode="8" d="M20 285q0 89 30.5 161.5t86 123t122 84.5t149.5 57q-201 101 -201 260q0 135 73 230.5t190.5 140t264.5 44.5q67 0 133.5 -16.5t124 -48.5t93.5 -86.5t36 -122.5q0 -145 -99 -246t-251 -157q108 -45 177 -116t69 -169q0 -94 -34 -171t-90.5 -127.5t-132.5 -84.5 t-156.5 -49t-166.5 -15q-74 0 -144.5 17.5t-133.5 52.5t-101.5 96.5t-38.5 141.5zM238 315q0 -92 69 -140t164 -48q85 0 159.5 34.5t123.5 103t49 155.5q0 35 -15.5 66.5t-36 53.5t-55.5 45.5t-59 35.5t-62 30q-337 -98 -337 -336zM416 997q0 -137 192 -223q53 19 101.5 46 t94.5 64t73.5 87t27.5 106q0 74 -60.5 119t-139.5 45q-122 0 -205.5 -67t-83.5 -177z" />
<glyph unicode="9" d="M12 33l54 157q52 -29 129 -48t143 -19q88 0 162.5 31.5t126 82t92 122t65 143t41.5 153.5q-58 -74 -151.5 -115.5t-194.5 -41.5q-153 0 -255.5 100t-102.5 246q0 160 73.5 284.5t199 191t280.5 66.5q182 0 291.5 -119.5t109.5 -312.5q0 -96 -12.5 -192t-40 -194 t-68.5 -185t-101.5 -163.5t-135 -131.5t-174 -87t-213.5 -32q-78 0 -166 18t-152 46zM330 864q0 -93 59.5 -155t161.5 -62q136 0 227.5 100t91.5 240q0 109 -59.5 176.5t-157.5 67.5t-173 -52t-112.5 -134.5t-37.5 -180.5z" />
<glyph unicode=":" horiz-adv-x="575" d="M43 0l45 211h217l-45 -211h-217zM213 815l45 209h215l-43 -209h-217z" />
<glyph unicode=";" horiz-adv-x="575" d="M-96 -262l219 473h207l-273 -473h-153zM213 815l45 209h215l-43 -209h-217z" />
<glyph unicode="&#x3c;" d="M51 424v172l1047 418v-174l-854 -330l854 -328v-172z" />
<glyph unicode="=" d="M51 227v158h1047v-158h-1047zM51 635v160h1047v-160h-1047z" />
<glyph unicode="&#x3e;" d="M78 10v172l852 328l-852 330v174l1044 -418v-172z" />
<glyph unicode="?" horiz-adv-x="874" d="M98 0l43 211h217l-43 -211h-217zM166 1155l29 168q2 1 26.5 9t32 10.5t32.5 10t39 10.5t40.5 8.5t48 8t50 4.5t56.5 2q87 0 163.5 -30t127.5 -93t51 -147q0 -73 -23 -134.5t-61 -106t-84.5 -84t-95.5 -77t-91.5 -76.5t-75.5 -92t-44 -114l-12 -65h-182l10 61 q12 74 43 137t70.5 107.5t84.5 83.5t87 73t76.5 68t55.5 76.5t21 91.5q0 74 -56 115t-136 41q-136 0 -283 -66z" />
<glyph unicode="@" horiz-adv-x="1527" d="M39 326q0 153 61 288t164 228.5t241 147.5t290 54q123 0 236 -40.5t199 -112.5t137.5 -181t51.5 -237q0 -100 -28 -185.5t-80 -150t-134 -101t-184 -36.5q-78 0 -133 34.5t-61 108.5q-97 -143 -248 -143q-96 0 -145.5 63.5t-49.5 163.5q0 134 64.5 250t178 186t247.5 70 q93 0 182 -28l-106 -500q-2 -10 -2 -29q0 -40 31.5 -57t74.5 -17q66 0 117 32.5t80.5 87.5t44 118.5t14.5 132.5q0 107 -41.5 193.5t-112.5 142t-163.5 85.5t-196.5 30q-162 0 -298.5 -80.5t-215 -218t-78.5 -299.5q0 -253 153.5 -396t409.5 -143q187 0 428 90l13 -131 q-248 -80 -469 -80q-295 0 -483.5 183t-188.5 477zM487 233q0 -129 103 -129q46 0 87 26t70 68.5t49 88.5t31 92l56 242q-27 8 -66 8q-92 0 -170 -62t-119 -152.5t-41 -181.5z" />
<glyph unicode="A" horiz-adv-x="1327" d="M-131 0l813 1366h279l239 -1366h-227l-53 360h-615l-209 -360h-227zM391 522h510l-110 686z" />
<glyph unicode="B" horiz-adv-x="1161" d="M23 0l290 1366h437q71 0 135 -16.5t117.5 -49.5t85.5 -89t32 -128q0 -146 -89 -246t-240 -128q114 -26 173.5 -96.5t59.5 -176.5q0 -100 -36.5 -178t-94.5 -125.5t-139 -78.5t-161.5 -42.5t-170.5 -11.5h-399zM266 150h144q391 0 391 296q0 46 -20.5 81t-51 55t-74 32 t-81 15.5t-80.5 3.5h-125zM401 782h148q71 0 131 14.5t110.5 45t79.5 85t29 128.5q0 59 -37 97.5t-85.5 52.5t-106.5 14h-178z" />
<glyph unicode="C" horiz-adv-x="1171" d="M76 535q0 160 43.5 297.5t121 238t183.5 172.5t232.5 107.5t265.5 35.5q188 0 333 -55l-59 -176q-106 62 -278 62q-183 0 -324 -85.5t-216 -233t-75 -331.5q0 -187 105 -303.5t303 -116.5q163 0 307 62l-23 -174q-138 -58 -340 -58q-113 0 -209 31.5t-163 85.5 t-114.5 126t-70 151.5t-22.5 163.5z" />
<glyph unicode="D" horiz-adv-x="1363" d="M23 0l290 1366h416q158 0 283 -57t199.5 -172t74.5 -273q0 -406 -222 -635t-622 -229h-419zM279 162h110q331 0 500.5 173.5t169.5 506.5q0 174 -106 268t-281 94h-174z" />
<glyph unicode="E" horiz-adv-x="1064" d="M23 0l290 1366h774l-34 -162h-555l-90 -426h528l-37 -160h-524l-99 -456h576l-35 -162h-794z" />
<glyph unicode="F" horiz-adv-x="1001" d="M23 0l290 1366h758l-37 -162h-536l-92 -432h516l-35 -162h-514l-129 -610h-221z" />
<glyph unicode="G" horiz-adv-x="1353" d="M76 539q0 161 45.5 298.5t126.5 237.5t190 170.5t238 105.5t270 35q238 0 379 -65l-53 -174q-119 74 -326 74q-288 0 -465.5 -186.5t-177.5 -481.5q0 -174 102.5 -292t288.5 -118q137 0 254 43l82 385h-244l35 156h443l-142 -668q-224 -82 -465 -82q-139 0 -251.5 46.5 t-183.5 125t-108.5 178.5t-37.5 212z" />
<glyph unicode="H" horiz-adv-x="1376" d="M23 0l290 1366h219l-120 -573h602l121 573h221l-291 -1366h-221l131 612h-602l-131 -612h-219z" />
<glyph unicode="I" horiz-adv-x="555" d="M23 0l290 1366h222l-291 -1366h-221z" />
<glyph unicode="J" horiz-adv-x="688" d="M-139 6l41 170q48 -22 116 -22q56 0 99 21.5t70 60.5t43.5 79.5t27.5 92.5l205 958h221l-211 -995q-40 -188 -149.5 -291t-290.5 -103q-92 0 -172 29z" />
<glyph unicode="K" horiz-adv-x="1214" d="M23 0l290 1366h217l-129 -604l660 604h278l-749 -655l495 -711h-262l-440 674l-143 -674h-217z" />
<glyph unicode="L" horiz-adv-x="974" d="M23 0l290 1366h219l-251 -1186h583l-39 -180h-802z" />
<glyph unicode="M" horiz-adv-x="1822" d="M23 0l290 1366h334l170 -1122l651 1122h334l-291 -1366h-206l258 1208l-699 -1208h-202l-185 1210l-256 -1210h-198z" />
<glyph unicode="N" horiz-adv-x="1429" d="M23 0l290 1366h312l340 -1173l243 1173h201l-293 -1366h-311l-336 1171l-248 -1171h-198z" />
<glyph unicode="O" horiz-adv-x="1429" d="M76 489q0 137 31.5 267t96.5 244.5t155 200.5t215 135.5t270 49.5q108 0 196 -33t145 -86t96.5 -123t56 -141t16.5 -143q0 -141 -30 -270t-93 -241t-153 -194.5t-218 -130t-280 -47.5q-107 0 -194.5 31.5t-144 83t-94.5 119.5t-54.5 137.5t-16.5 140.5zM303 494 q0 -100 31 -177.5t100 -126.5t168 -49q105 0 193 43t148 114.5t102 165.5t61.5 193.5t19.5 200.5q0 71 -17 133.5t-52 116t-96.5 84.5t-143.5 31q-84 0 -158.5 -32t-129.5 -87t-99 -127t-71.5 -154t-41.5 -165.5t-14 -163.5z" />
<glyph unicode="P" horiz-adv-x="1128" d="M23 0l290 1366h449q162 0 264 -99t102 -231q0 -106 -33 -191.5t-87 -140t-126.5 -91t-147.5 -51.5t-154 -15h-224l-114 -547h-219zM389 707h100q72 0 128 7t112 27.5t93 54t60 90.5t23 134q0 78 -66.5 133t-162.5 55h-180z" />
<glyph unicode="Q" horiz-adv-x="1429" d="M76 489q0 138 32 268.5t97 244.5t155.5 199.5t215 135t268.5 49.5q108 0 196.5 -33t145.5 -86t96 -123t55.5 -141t16.5 -143q0 -121 -23.5 -235.5t-69.5 -219t-122.5 -191t-175.5 -142.5l247 -334h-262l-184 270q-85 -31 -186 -31q-105 0 -191 31t-142.5 82t-95.5 118.5 t-56 137.5t-17 143zM303 494q0 -100 31 -177.5t100 -126.5t168 -49q106 0 194.5 43.5t148 115t101.5 165.5t61 193t19 200q0 56 -10.5 107.5t-34 99t-58.5 82t-88.5 55.5t-119.5 21q-101 0 -187 -45.5t-144.5 -120t-100.5 -170.5t-61 -196t-19 -197z" />
<glyph unicode="R" horiz-adv-x="1159" d="M23 0l288 1366h443q71 0 136 -18t118 -53t84.5 -92t31.5 -128q0 -79 -25.5 -144t-65 -107t-93.5 -73t-104.5 -46t-104.5 -23q71 -16 101.5 -58.5t50.5 -125.5l116 -498h-235l-86 424q-11 53 -22.5 82.5t-34 54t-59 34t-93.5 9.5h-100l-127 -604h-219zM401 762h136 q51 0 96 5.5t95.5 23t86.5 46.5t60 80t24 119q0 83 -68.5 128.5t-195.5 45.5h-141z" />
<glyph unicode="S" horiz-adv-x="1021" d="M-33 37l58 178q52 -33 134 -55q79 -22 162 -21h7q89 1 162.5 29.5t120 88.5t46.5 142q0 48 -28 88.5t-72.5 70.5t-98.5 60t-108.5 63t-99 71.5t-72.5 94t-28 122.5q0 104 47 185.5t128 131t182 75t216 25.5q171 0 295 -53l-55 -168q-50 27 -123 44.5t-138 17.5 q-53 0 -108 -14t-104.5 -41.5t-81 -73.5t-31.5 -103q0 -42 28 -78t73.5 -64.5t100 -57t109 -63t100 -75t73.5 -100.5t28 -133q0 -201 -159.5 -324t-414.5 -123q-196 0 -348 60z" />
<glyph unicode="T" horiz-adv-x="1036" d="M104 1186l37 180h1043l-39 -180h-410l-252 -1186h-221l254 1186h-412z" />
<glyph unicode="U" horiz-adv-x="1355" d="M90 346q0 85 12 146l189 874h219l-186 -872q-15 -77 -15 -125q2 -102 66.5 -162t202.5 -60q149 0 241.5 95t126.5 254l184 870h222l-185 -868q-57 -271 -215 -396t-413 -125q-89 0 -167 21t-142.5 64t-102 116t-37.5 168z" />
<glyph unicode="V" horiz-adv-x="1222" d="M121 1366h231l146 -1151l628 1151h236l-778 -1366h-258z" />
<glyph unicode="W" horiz-adv-x="1886" d="M137 1366h219l52 -1153l559 1153h237l68 -1153l545 1153h204l-665 -1366h-252l-68 1155l-557 -1155h-256z" />
<glyph unicode="X" horiz-adv-x="1277" d="M-133 0l655 721l-317 645h244l235 -530l438 530h252l-596 -651l338 -715h-248l-250 596l-499 -596h-252z" />
<glyph unicode="Y" horiz-adv-x="1183" d="M121 1366h246l229 -651l510 651h235l-675 -821l-117 -545h-219l114 545z" />
<glyph unicode="Z" horiz-adv-x="1064" d="M-78 0l37 176l907 1022h-667l37 168h911l-39 -176l-897 -1022h698l-35 -168h-952z" />
<glyph unicode="[" horiz-adv-x="587" d="M4 -262l369 1739h383l-29 -136h-205l-311 -1466h205l-29 -137h-383z" />
<glyph unicode="\" horiz-adv-x="692" d="M66 1366h170l391 -1366h-170z" />
<glyph unicode="]" horiz-adv-x="587" d="M-199 -262l29 137h205l311 1466h-205l29 136h383l-369 -1739h-383z" />
<glyph unicode="^" d="M143 502l353 864h157l353 -864h-179l-256 667l-249 -667h-179z" />
<glyph unicode="_" horiz-adv-x="1024" d="M-184 -256l22 102h1002l-23 -102h-1001z" />
<glyph unicode="`" horiz-adv-x="497" d="M154 1475h219l84 -279h-154z" />
<glyph unicode="a" horiz-adv-x="1157" d="M41 301q0 124 40.5 240t113 206.5t167 158.5t207.5 104.5t230 36.5q76 0 159.5 -12t135.5 -29l-131 -592q-56 -258 -56 -414h-209q6 75 37 258q-28 -53 -62 -98.5t-83.5 -89t-116 -68.5t-143.5 -25q-138 0 -213.5 89.5t-75.5 234.5zM258 324q0 -195 158 -195 q116 0 225 136.5t154 332.5l65 283q-41 14 -104 14q-133 0 -249 -84t-182.5 -215.5t-66.5 -271.5z" />
<glyph unicode="b" horiz-adv-x="1165" d="M14 0l314 1477h204l-133 -619q127 186 353 186q81 0 142 -28t93 -68t52 -95t25 -97t5 -86q0 -96 -22.5 -193.5t-68.5 -187.5t-109.5 -159.5t-153 -111t-191.5 -41.5q-219 0 -278 207l-43 -184h-189zM309 373q0 -105 44.5 -174.5t144.5 -69.5q87 0 158 55.5t112 140.5 t62.5 175t21.5 170q0 100 -45.5 161.5t-142.5 61.5q-57 0 -108.5 -24.5t-89.5 -66.5t-68.5 -95t-49.5 -111.5t-29 -115.5t-10 -107z" />
<glyph unicode="c" horiz-adv-x="958" d="M59 358q0 142 45.5 267t127 218t202.5 147t264 54q142 0 258 -40l-43 -160q-92 49 -219 49q-74 0 -140.5 -28.5t-116.5 -77t-86.5 -111t-55.5 -133t-19 -140.5q0 -114 67.5 -194t180.5 -80q139 0 248 45l-22 -160q-120 -37 -295 -37q-170 0 -283 105.5t-113 275.5z" />
<glyph unicode="d" horiz-adv-x="1183" d="M59 334q0 191 69.5 353.5t194 259.5t275.5 97q100 0 177 -50.5t95 -135.5l131 619h207l-250 -1170q-16 -70 -55 -307h-190l24 170q-136 -193 -358 -193q-82 0 -145.5 30t-100.5 81.5t-55.5 113.5t-18.5 132zM276 360q0 -104 45 -167.5t146 -63.5q67 0 125.5 36t98.5 93 t69.5 127.5t43 140t13.5 129.5q0 104 -43.5 171t-142.5 67q-72 0 -132.5 -36t-100.5 -92.5t-68.5 -128.5t-41 -142t-12.5 -134z" />
<glyph unicode="e" horiz-adv-x="1042" d="M49 315q0 193 89.5 362t238 268t315.5 99q81 0 147 -21t112 -75t46 -135q0 -362 -718 -362q-19 -55 -19 -123q0 -104 63.5 -157.5t170.5 -53.5q74 0 153 22.5t141 61.5l3 -148q-149 -76 -355 -76q-82 0 -151 20.5t-122.5 61t-83.5 106t-30 150.5zM303 580q502 0 502 219 q0 110 -139 110q-50 0 -98.5 -20t-87.5 -53t-74 -76.5t-60 -88.5t-43 -91z" />
<glyph unicode="f" horiz-adv-x="659" d="M-246 -451l39 150q29 -8 88 -8q140 0 197 278l190 905h-192l33 150h190l27 121q77 352 370 352q81 0 154 -20l-43 -144q-62 17 -94 17q-137 0 -183 -220l-22 -106h223l-33 -150h-221l-194 -919q-13 -61 -30.5 -115.5t-48 -112t-67.5 -98.5t-92 -67.5t-119 -26.5 q-95 0 -172 14z" />
<glyph unicode="g" horiz-adv-x="1159" d="M-66 -410l46 164q123 -67 284 -67q92 0 161.5 25t116.5 73.5t77 109t51 142.5l39 153q-74 -102 -159.5 -146t-213.5 -44q-141 0 -217 83t-76 216q0 156 64.5 296t170.5 237.5t245 154.5t286 57q139 0 287 -38l-201 -902q-33 -150 -76.5 -249.5t-116 -175t-181 -110 t-263.5 -34.5q-164 0 -324 55zM260 317q0 -176 154 -176q63 0 120 29t97.5 74t74.5 106t54.5 118t34.5 116l69 295q-49 14 -98 14q-133 0 -251 -82t-186.5 -215t-68.5 -279z" />
<glyph unicode="h" horiz-adv-x="1138" d="M14 0l314 1477h204l-135 -621q149 188 355 188q122 0 199 -66t77 -183q0 -60 -22 -168l-134 -627h-206l129 610q14 75 14 125q0 72 -38.5 115t-117.5 43q-239 0 -311 -330l-121 -563h-207z" />
<glyph unicode="i" horiz-adv-x="497" d="M14 0l215 1024h207l-215 -1024h-207zM270 1235l41 199h211l-41 -199h-211z" />
<glyph unicode="j" horiz-adv-x="509" d="M-279 -449l43 152q30 -12 70 -12q122 0 160 180l244 1153h206l-243 -1171q-67 -318 -326 -318q-89 0 -154 16zM279 1235l38 199h211l-39 -199h-210z" />
<glyph unicode="k" horiz-adv-x="1011" d="M14 0l310 1477h206l-184 -879l467 426h256l-530 -461l350 -563h-242l-313 545l-113 -545h-207z" />
<glyph unicode="l" horiz-adv-x="516" d="M14 0l314 1477h207l-314 -1477h-207z" />
<glyph unicode="m" horiz-adv-x="1718" d="M14 0l166 788q30 146 39 236h195l-31 -178q69 99 156 148.5t204 49.5q99 0 168 -58t72 -155q61 97 154.5 155t203.5 58q122 0 195.5 -64.5t73.5 -184.5q0 -44 -15 -113l-143 -682h-209l139 666q11 53 11 90q0 137 -142 137q-59 0 -110.5 -28.5t-87.5 -75.5t-60.5 -101 t-36.5 -110l-120 -578h-207l139 666q10 48 10 90q0 137 -145 137q-59 0 -110 -29t-86.5 -76t-59.5 -100.5t-35 -109.5l-121 -578h-207z" />
<glyph unicode="n" horiz-adv-x="1134" d="M14 0l166 788q30 144 39 236h193l-31 -182q77 104 161.5 153t205.5 49q127 0 201.5 -67.5t74.5 -190.5q0 -45 -14 -120l-140 -666h-206l129 618q16 82 16 117q0 71 -38.5 114.5t-121.5 43.5q-66 0 -119.5 -26.5t-89.5 -72.5t-59.5 -99.5t-36.5 -116.5l-123 -578h-207z " />
<glyph unicode="o" horiz-adv-x="1181" d="M59 346q0 141 42.5 267t120.5 222.5t197.5 152.5t264.5 56q169 0 285 -100t116 -266q0 -111 -27 -214.5t-81 -191.5t-128.5 -154t-175 -103.5t-214.5 -37.5q-168 0 -284 101t-116 268zM274 383q0 -118 53 -186t167 -68q83 0 156.5 51t120 128.5t73 165t26.5 165.5 q0 116 -57.5 185t-171.5 69q-69 0 -129.5 -33t-103 -87t-73.5 -121t-46 -136.5t-15 -132.5z" />
<glyph unicode="p" horiz-adv-x="1165" d="M-82 -442l244 1142q35 163 59 324h197l-33 -186q59 95 156 150.5t211 55.5q315 0 315 -380q0 -97 -22.5 -194t-69 -185.5t-111 -157t-155 -109.5t-193.5 -41q-203 0 -262 185l-127 -604h-209zM312 388q-1 -8 -1 -15q0 -40 7 -81q9 -47 28.5 -82.5t57 -58t88.5 -22.5 q72 0 132.5 35t100.5 90.5t68.5 126.5t42 140.5t14.5 135.5v11q0 45 -8 82q-8 40 -28.5 73.5t-59.5 51.5t-95 18q-69 0 -129.5 -40t-101 -104t-67 -131.5t-39.5 -134.5q-9 -48 -10 -95z" />
<glyph unicode="q" horiz-adv-x="1153" d="M41 303q0 155 63 294t167.5 236t242.5 154t285 57q76 0 159 -11.5t134 -28.5l-312 -1446h-207l144 659q-150 -242 -387 -242q-96 0 -163 46.5t-96.5 118.5t-29.5 163zM258 324q0 -39 7 -72t22 -62t44 -46t70 -17q60 0 116.5 29.5t99 77t79 109t60 122.5t37.5 121l69 293 q-41 14 -106 14q-133 0 -249 -83.5t-182.5 -214.5t-66.5 -271z" />
<glyph unicode="r" horiz-adv-x="727" d="M14 0l168 788q34 166 41 236h193l-37 -205q47 92 137 158.5t186 66.5q55 0 82 -8l-51 -196q-35 14 -80 14q-70 0 -128 -34t-97 -91t-64.5 -118.5t-39.5 -129.5l-103 -481h-207z" />
<glyph unicode="s" horiz-adv-x="868" d="M-27 27l50 157q113 -65 247 -65q41 0 82.5 9.5t80 28.5t63 53.5t24.5 78.5q0 42 -30.5 77.5t-75.5 59.5t-98.5 54.5t-98.5 61t-75.5 81t-30.5 112.5q0 66 27.5 120t72 88t103.5 57.5t118 33.5t119 10q143 0 270 -47l-49 -145q-106 53 -229 53q-39 0 -76.5 -7t-74 -23 t-59 -46.5t-22.5 -72.5q0 -43 43 -80.5t104 -68.5t122 -67.5t104 -95.5t43 -135q0 -87 -42 -154t-111 -104t-146.5 -55.5t-159.5 -18.5q-161 0 -295 50z" />
<glyph unicode="t" horiz-adv-x="708" d="M74 874l32 150h187l45 221l223 68l-61 -289h225l-31 -150h-225l-117 -542q-12 -55 -12 -109q0 -86 96 -86q55 0 121 27l-20 -154q-101 -33 -201 -33q-94 0 -151.5 51t-57.5 148q0 72 16 154l117 544h-186z" />
<glyph unicode="u" horiz-adv-x="1132" d="M63 240q0 51 13 118l141 670h207l-129 -620q-16 -82 -16 -117q0 -73 38 -117.5t121 -44.5q65 0 118.5 27.5t89.5 75t59 101t36 116.5l121 579h209l-166 -790q-29 -142 -39 -238h-192l28 184q-73 -103 -157 -155t-203 -52q-126 0 -202.5 70t-76.5 193z" />
<glyph unicode="v" horiz-adv-x="970" d="M96 1024h215l68 -858l426 858h219l-541 -1024h-266z" />
<glyph unicode="w" horiz-adv-x="1630" d="M100 1024h211l58 -850l401 850h242l61 -850l400 850h202l-512 -1024h-250l-59 852l-405 -852h-250z" />
<glyph unicode="x" horiz-adv-x="980" d="M-106 0l466 541l-221 483h223l146 -385l283 385h227l-426 -496l237 -528h-227l-149 424l-334 -424h-225z" />
<glyph unicode="y" horiz-adv-x="972" d="M-147 -444l45 153q52 -18 94 -18q67 0 118 44t74 103l68 135l-148 1051h218l81 -846l412 846h215l-627 -1174q-41 -77 -77.5 -129t-84 -97t-105.5 -67t-130 -22q-53 0 -153 21z" />
<glyph unicode="z" horiz-adv-x="925" d="M-57 0l34 162l699 712h-526l30 150h762l-35 -166l-694 -708h547l-33 -150h-784z" />
<glyph unicode="{" horiz-adv-x="591" d="M55 547l25 125q41 0 76.5 22t60 58t40.5 74t24 77l67 326q21 101 91.5 174.5t174.5 73.5h146l-25 -121h-84q-28 0 -52 -16t-39.5 -42t-25.5 -52.5t-16 -55.5l-67 -322q-19 -89 -84 -163t-150 -97q62 -17 95.5 -69.5t33.5 -120.5q0 -47 -6 -72l-70 -317q-10 -45 -10 -82 q0 -49 18 -68.5t54 -19.5h84l-25 -121h-147q-79 0 -123.5 52t-44.5 132q0 26 8 66l70 329q10 52 10 95q0 59 -26.5 97t-82.5 38z" />
<glyph unicode="|" horiz-adv-x="440" d="M133 -442v2029h178v-2029h-178z" />
<glyph unicode="}" horiz-adv-x="591" d="M-170 -262l25 121h84q39 0 69 30t44 64.5t22 75.5l65 317q19 91 83 165t151 97q-62 17 -95.5 71t-33.5 122q0 21 8 67l67 322q9 41 9 82q0 84 -72 84h-84l27 121h145q80 0 124 -50.5t44 -130.5q0 -37 -6 -67l-70 -326q-10 -52 -10 -94q0 -60 27 -98.5t84 -38.5l-29 -125 q-41 0 -75.5 -22t-58 -57.5t-38.5 -73.5t-23 -77l-71 -329q-22 -101 -95 -175.5t-170 -74.5h-147z" />
<glyph unicode="~" d="M-2 350q5 47 17 90.5t33.5 85.5t51 72.5t72 49t92.5 18.5q76 0 183.5 -36.5t211 -73t170.5 -36.5q64 0 101.5 43.5t50.5 110.5h111q-4 -58 -21.5 -111.5t-48 -100t-80 -74.5t-111.5 -28q-78 0 -185 36t-210 72t-172 36q-63 0 -103 -44.5t-48 -109.5h-115z" />
<glyph unicode="&#xa1;" horiz-adv-x="571" d="M-43 -348l246 999h170l-180 -999h-236zM213 809l43 209h217l-45 -209h-215z" />
<glyph unicode="&#xa2;" d="M201 539q0 249 139 428.5t373 208.5l39 190h118l-36 -186q108 -3 206 -39l-43 -152q-90 47 -204 47q-84 0 -158 -40.5t-123.5 -105.5t-77.5 -145.5t-28 -162.5q0 -106 62 -180t165 -74q117 0 235 45l-22 -154q-105 -32 -230 -35l-41 -184h-118l41 188 q-132 21 -214.5 116.5t-82.5 234.5z" />
<glyph unicode="&#xa3;" d="M25 0l32 156h160l107 495h-154l33 152h151l23 112q93 471 559 471q111 0 238 -40l-48 -160q-81 43 -196 43q-68 0 -123 -19.5t-90 -49.5t-62.5 -75t-42 -87t-26.5 -95l-23 -100h334l-33 -152h-334l-104 -495h475l-33 -156h-843z" />
<glyph unicode="&#xa4;" d="M57 297l131 131q-82 124 -82 254q0 136 82 254l-131 133l103 102l131 -133q118 82 254 82q132 0 256 -80l131 129l102 -102l-131 -131q82 -125 82 -256q0 -137 -82 -250l131 -135l-102 -102l-133 133q-113 -84 -252 -84q-129 0 -254 84l-131 -133zM262 682 q0 -118 82.5 -201.5t200.5 -83.5t201 83t83 202q0 117 -83 201t-201 84t-200.5 -83t-82.5 -202z" />
<glyph unicode="&#xa5;" d="M74 283l26 133h297l33 149h-297l29 133h231l-203 668h222l168 -633l438 633h217l-500 -668h242l-29 -133h-305l-33 -149h305l-26 -133h-307l-60 -283h-213l62 283h-297z" />
<glyph unicode="&#xa6;" horiz-adv-x="440" d="M133 371h178v-813h-178v813zM133 776v811h178v-811h-178z" />
<glyph unicode="&#xa7;" d="M12 -180l47 153q170 -82 320 -82q62 0 118.5 20.5t97 67t40.5 109.5q0 51 -35.5 83t-107.5 69l-199 100q-63 32 -101 85.5t-38 119.5q0 54 19 101.5t57 86.5t73.5 66.5t87.5 60.5q-45 28 -70.5 73t-25.5 97q0 90 39.5 160.5t106 112t146.5 62.5t169 21q132 0 295 -55 l-43 -151q-129 61 -240 61q-47 0 -91 -8.5t-85.5 -28t-66.5 -56.5t-25 -87q0 -27 12 -50.5t35 -42.5t43.5 -31.5t50.5 -27.5l174 -88q75 -37 115.5 -82.5t40.5 -115.5q0 -52 -18.5 -99t-53.5 -88t-66.5 -69t-76.5 -62q86 -69 86 -170q0 -81 -26.5 -147t-72 -110.5 t-108 -74.5t-132 -43.5t-145.5 -13.5q-175 0 -346 74zM340 588q0 -79 94 -127l203 -101q149 116 149 218q0 42 -33 72.5t-87 58.5l-168 84q-56 -25 -107 -87t-51 -118z" />
<glyph unicode="&#xa8;" horiz-adv-x="497" d="M117 1235l43 199h170l-43 -199h-170zM463 1235l43 199h168l-41 -199h-170z" />
<glyph unicode="&#xa9;" horiz-adv-x="1572" d="M82 684q0 143 55.5 273t150 224t225 149.5t273.5 55.5t273.5 -55.5t225 -149.5t150.5 -224t56 -273q0 -191 -94.5 -354t-257 -258t-353.5 -95q-143 0 -273.5 56t-225 151t-150 226t-55.5 274zM217 684q0 -156 75.5 -291t207 -215t286.5 -80q117 0 223 47.5t181 126.5 t119.5 187t44.5 225q0 156 -75 290t-206.5 213t-286.5 79t-286.5 -79t-207 -213t-75.5 -290zM414 684q0 178 123.5 286.5t316.5 108.5q103 0 197 -32l-9 -119q-94 37 -172 37q-143 0 -225 -76.5t-82 -204.5t80.5 -203t226.5 -75q85 0 172 38l9 -118q-87 -37 -197 -37 q-201 0 -320.5 105.5t-119.5 289.5z" />
<glyph unicode="&#xaa;" horiz-adv-x="778" d="M115 940q0 127 73.5 230.5t188.5 159.5t244 56q127 0 204 -24l-88 -367q-32 -133 -32 -235h-158q3 40 24 149q-95 -164 -262 -164q-94 0 -144 53.5t-50 141.5zM279 954q0 -108 98 -108q72 0 139.5 79t95.5 195l39 160q-18 6 -61 6q-124 0 -217.5 -102t-93.5 -230z" />
<glyph unicode="&#xab;" horiz-adv-x="958" d="M23 524l344 408h178l-338 -408l184 -411h-172zM399 524l344 408h179l-338 -408l184 -411h-172z" />
<glyph unicode="&#xac;" d="M51 635v160h1047v-568h-166v408h-881z" />
<glyph unicode="&#xad;" horiz-adv-x="667" d="M61 551l35 168h498l-35 -168h-498z" />
<glyph unicode="&#xae;" horiz-adv-x="1572" d="M82 684q0 143 55.5 273t150 224t225 149.5t273.5 55.5t273.5 -55.5t225 -149.5t150.5 -224t56 -273q0 -191 -94.5 -354t-257 -258t-353.5 -95q-143 0 -273.5 56t-225 151t-150 226t-55.5 274zM219 684q0 -156 75 -290.5t206 -215t286 -80.5t287 80.5t207.5 215 t75.5 290.5q0 155 -75.5 289t-207.5 213.5t-287 79.5t-286 -79t-206 -213t-75 -290zM508 313v770h289q117 0 194.5 -49.5t77.5 -154.5q0 -74 -55.5 -125t-136.5 -64q49 -9 78 -34.5t49 -71.5l114 -271h-151l-97 230q-24 58 -53.5 79t-97.5 21h-68v-330h-143zM649 748h86 q187 0 187 122q0 33 -15.5 55.5t-44.5 33t-59 14.5t-70 4h-84v-229z" />
<glyph unicode="&#xaf;" horiz-adv-x="497" d="M94 1276l25 121h547l-27 -121h-545z" />
<glyph unicode="&#xb0;" horiz-adv-x="819" d="M199 1075q0 130 91 220.5t222 90.5q126 0 212.5 -83.5t86.5 -208.5q0 -130 -91 -221t-222 -91q-125 0 -212 84t-87 209zM317 1079q0 -74 54.5 -126t128.5 -52q78 0 135 56.5t57 134.5q0 79 -51 128.5t-131 49.5q-84 0 -138.5 -53.5t-54.5 -137.5z" />
<glyph unicode="&#xb1;" d="M51 -39v158h1047v-158h-1047zM51 553v160h441v348h165v-348h441v-160h-441v-344h-165v344h-441z" />
<glyph unicode="&#xb2;" horiz-adv-x="880" d="M96 553l29 113l219 161q15 11 60.5 42.5t72.5 51.5t67 54.5t62.5 62t40 63.5t17.5 70q0 49 -47.5 77t-106.5 28q-62 0 -112.5 -14t-114.5 -43l16 116q109 51 266 51q104 0 186.5 -50t82.5 -142q0 -47 -17.5 -91.5t-41 -77t-65.5 -70t-72.5 -59.5t-82 -57.5t-74.5 -52.5 l-164 -122h410l-25 -111h-606z" />
<glyph unicode="&#xb3;" horiz-adv-x="880" d="M98 573l39 113q84 -37 213 -37q58 0 113.5 17t96 57t40.5 94q0 53 -66 83t-137 28l-102 -2l24 100h99q45 0 87 8t80 24.5t61.5 47t23.5 70.5q0 51 -52 79.5t-120 28.5q-42 0 -80.5 -6.5t-63 -13.5t-69.5 -23l16 111q124 34 240 34q118 0 205.5 -47.5t87.5 -138.5 q0 -89 -64.5 -148t-161.5 -75q64 -6 110 -51.5t46 -104.5q0 -70 -38 -125.5t-100 -88t-134.5 -49.5t-147.5 -17q-158 0 -246 32z" />
<glyph unicode="&#xb4;" horiz-adv-x="497" d="M260 1196l205 279h217l-266 -279h-156z" />
<glyph unicode="&#xb5;" d="M-82 -442l313 1470h207l-129 -620q-16 -82 -16 -117q0 -73 38.5 -117.5t121.5 -44.5q65 0 118.5 27.5t89.5 75t59 101t36 116.5l121 579h208l-163 -790q-33 -162 -41 -238h-193l31 184q-138 -200 -324 -200q-58 0 -102.5 21t-63.5 50l-106 -497h-205z" />
<glyph unicode="&#xb6;" d="M119 938q0 110 44.5 197t120 140t170 80t199.5 27h516l-342 -1603h-157l313 1474h-240l-313 -1474h-158l187 880q-140 0 -240 72.5t-100 206.5z" />
<glyph unicode="&#xb7;" horiz-adv-x="575" d="M143 528l45 209h215l-43 -209h-217z" />
<glyph unicode="&#xb8;" horiz-adv-x="497" d="M-106 -338l47 72q79 -35 139 -35q42 0 80.5 21.5t38.5 60.5q0 24 -17.5 37.5t-42.5 13.5q-49 0 -90 -16l-20 41l125 143h96l-103 -106q25 8 80 8q47 0 80 -27.5t33 -73.5q0 -59 -42.5 -102t-98 -60.5t-113.5 -17.5q-114 0 -192 41z" />
<glyph unicode="&#xb9;" horiz-adv-x="880" d="M250 1196l305 170h131l-184 -821h-156l154 669l-191 -122z" />
<glyph unicode="&#xba;" horiz-adv-x="778" d="M115 969q0 178 113 297.5t304 119.5q113 0 191 -59t78 -162q0 -176 -114 -298t-302 -122q-113 0 -191.5 60.5t-78.5 163.5zM279 989q0 -143 131 -143q68 0 123 51.5t81.5 119t26.5 128.5q0 64 -35 102.5t-104 38.5t-122 -51t-77 -117t-24 -129z" />
<glyph unicode="&#xbb;" horiz-adv-x="958" d="M-35 113l338 409l-184 410h172l196 -410l-344 -409h-178zM342 113l338 409l-184 410h172l196 -410l-344 -409h-178z" />
<glyph unicode="&#xbc;" horiz-adv-x="1945" d="M233 1196l306 170h131l-185 -821h-155l153 669l-190 -122zM350 -49l867 1464h141l-866 -1464h-142zM893 178l31 123l512 520h170l-121 -534h125l-27 -109h-125l-41 -178h-143l41 178h-422zM1044 285h297l99 420z" />
<glyph unicode="&#xbd;" horiz-adv-x="1945" d="M205 1196l305 170h131l-184 -821h-156l154 669l-191 -122zM322 -49l866 1464h141l-866 -1464h-141zM944 0l29 113l219 161q16 12 60.5 43t72 50.5t67 53.5t62.5 62t40 63.5t17 69.5q0 49 -47.5 78t-105.5 29q-62 0 -111 -14t-114 -43l14 116q111 52 266 52 q65 0 124 -19.5t101.5 -65t42.5 -108.5q0 -56 -21 -105t-64.5 -93.5t-79.5 -73.5t-98.5 -72.5t-88.5 -63.5l-162 -124h408l-25 -109h-606z" />
<glyph unicode="&#xbe;" horiz-adv-x="1945" d="M119 573l39 113q84 -37 213 -37q58 0 113.5 17t96 57t40.5 94q0 53 -66 83t-137 28l-103 -2l25 100h98q45 0 87 8t80 24.5t61.5 47t23.5 70.5q0 51 -52 79.5t-120 28.5q-42 0 -80.5 -6.5t-63 -13.5t-69.5 -23l17 111q124 34 239 34q118 0 205.5 -47.5t87.5 -138.5 q0 -89 -64.5 -148t-160.5 -75q64 -6 109.5 -51.5t45.5 -104.5q0 -70 -38 -125.5t-100 -88t-134 -49.5t-147 -17q-158 0 -246 32zM526 -49l867 1464h141l-868 -1464h-140zM1069 178l29 123l512 520h170l-121 -534h125l-25 -109h-127l-41 -178h-143l41 178h-420zM1219 285h297 l98 420z" />
<glyph unicode="&#xbf;" horiz-adv-x="874" d="M-43 -90q0 73 23 134.5t61 106t84 84t95 77t91 76.5t75 92t44 114l12 65h185l-13 -63q-14 -73 -46 -136t-71.5 -107t-84 -83.5t-86 -73.5t-75.5 -68.5t-54.5 -77t-20.5 -91.5q0 -74 57 -114t138 -40q139 0 282 64l-28 -168l-23 -8q-23 -8 -28.5 -9.5t-28.5 -9t-34.5 -9.5 t-34.5 -8t-40.5 -8t-41.5 -5.5t-48 -4.5t-49 -1q-87 0 -163 30.5t-126.5 94t-50.5 147.5zM461 815l43 209h217l-45 -209h-215z" />
<glyph unicode="&#xc0;" horiz-adv-x="1327" d="M-131 0l813 1366h279l239 -1366h-227l-53 360h-615l-209 -360h-227zM391 522h510l-110 686zM623 1761h219l86 -278h-156z" />
<glyph unicode="&#xc1;" horiz-adv-x="1327" d="M-131 0l813 1366h279l239 -1366h-227l-53 360h-615l-209 -360h-227zM391 522h510l-110 686zM741 1483l205 278h221l-270 -278h-156z" />
<glyph unicode="&#xc2;" horiz-adv-x="1327" d="M-131 0l813 1366h279l239 -1366h-227l-53 360h-615l-209 -360h-227zM391 522h510l-110 686zM532 1483l269 278h188l148 -278h-156l-104 188l-187 -188h-158z" />
<glyph unicode="&#xc3;" horiz-adv-x="1327" d="M-131 0l813 1366h279l239 -1366h-227l-53 360h-615l-209 -360h-227zM391 522h510l-110 686zM524 1503q23 87 86.5 154t149.5 67q43 0 87 -20.5t82.5 -41t65.5 -20.5q37 0 64 27t37 62h110q-21 -84 -85.5 -152t-149.5 -68q-45 0 -86 20t-77 40t-69 20q-37 0 -67.5 -27.5 t-36.5 -60.5h-111z" />
<glyph unicode="&#xc4;" horiz-adv-x="1327" d="M-131 0l813 1366h279l239 -1366h-227l-53 360h-615l-209 -360h-227zM391 522h510l-110 686zM578 1524l40 198h170l-43 -198h-167zM922 1524l43 198h170l-43 -198h-170z" />
<glyph unicode="&#xc5;" horiz-adv-x="1327" d="M-131 0l813 1366h279l239 -1366h-227l-53 360h-615l-209 -360h-227zM391 522h510l-110 686zM659 1622q1 82 58 137.5t139 55.5q81 0 137.5 -55.5t53.5 -137.5q-1 -82 -59 -138.5t-140 -56.5t-137 56t-52 139zM743 1622q-2 -46 29.5 -78.5t77.5 -32.5t79 32t34 79 q1 46 -30 77.5t-77 31.5q-45 0 -78.5 -32t-34.5 -77z" />
<glyph unicode="&#xc6;" horiz-adv-x="1832" d="M-141 0l1114 1366h882l-34 -162h-555l-90 -426h528l-37 -160h-524l-99 -456h576l-35 -162h-774l74 356h-500l-289 -356h-237zM510 522h410l155 707z" />
<glyph unicode="&#xc7;" horiz-adv-x="1171" d="M76 535q0 160 43.5 297.5t121 238t183.5 172.5t232.5 107.5t265.5 35.5q188 0 333 -55l-59 -176q-106 62 -278 62q-183 0 -324 -85.5t-216 -233t-75 -331.5q0 -187 105 -303.5t303 -116.5q163 0 307 62l-23 -174q-106 -47 -299 -55l-80 -86q25 8 80 8q47 0 80 -27.5 t33 -73.5q0 -59 -42.5 -102t-98 -60.5t-113.5 -17.5q-115 0 -193 41l48 72q79 -35 139 -35q42 0 81.5 21.5t39.5 60.5q0 23 -18.5 37t-43.5 14q-49 0 -90 -16l-20 41l108 123q-129 7 -233 58t-167 129.5t-96.5 172.5t-33.5 195z" />
<glyph unicode="&#xc8;" horiz-adv-x="1064" d="M23 0l290 1366h774l-34 -162h-555l-90 -426h528l-37 -160h-524l-99 -456h576l-35 -162h-794zM541 1761h219l84 -278h-154z" />
<glyph unicode="&#xc9;" horiz-adv-x="1064" d="M23 0l290 1366h774l-34 -162h-555l-90 -426h528l-37 -160h-524l-99 -456h576l-35 -162h-794zM610 1483l203 278h221l-270 -278h-154z" />
<glyph unicode="&#xca;" horiz-adv-x="1064" d="M23 0l290 1366h774l-34 -162h-555l-90 -426h528l-37 -160h-524l-99 -456h576l-35 -162h-794zM424 1483l266 278h187l149 -278h-158l-104 188l-184 -188h-156z" />
<glyph unicode="&#xcb;" horiz-adv-x="1064" d="M23 0l290 1366h774l-34 -162h-555l-90 -426h528l-37 -160h-524l-99 -456h576l-35 -162h-794zM469 1524l41 198h170l-41 -198h-170zM815 1524l41 198h170l-43 -198h-168z" />
<glyph unicode="&#xcc;" horiz-adv-x="555" d="M23 0l290 1366h222l-291 -1366h-221zM238 1761h219l86 -278h-154z" />
<glyph unicode="&#xcd;" horiz-adv-x="555" d="M23 0l290 1366h222l-291 -1366h-221zM348 1483l205 278h219l-268 -278h-156z" />
<glyph unicode="&#xce;" horiz-adv-x="555" d="M23 0l290 1366h222l-291 -1366h-221zM143 1483l267 278h188l150 -278h-158l-105 188l-186 -188h-156z" />
<glyph unicode="&#xcf;" horiz-adv-x="555" d="M23 0l290 1366h222l-291 -1366h-221zM195 1524l41 198h170l-41 -198h-170zM541 1524l43 198h170l-43 -198h-170z" />
<glyph unicode="&#xd0;" horiz-adv-x="1363" d="M10 618l31 140h141l131 608h416q158 0 283 -57t199.5 -172t74.5 -273q0 -406 -222 -635t-622 -229h-419l131 618h-144zM279 162h110q331 0 500.5 173.5t169.5 506.5q0 174 -106 268t-281 94h-174l-92 -446h325l-31 -140h-325z" />
<glyph unicode="&#xd1;" horiz-adv-x="1429" d="M23 0l290 1366h312l340 -1173l243 1173h201l-293 -1366h-311l-336 1171l-248 -1171h-198zM569 1503q23 87 87.5 154t150.5 67q43 0 87 -20.5t82.5 -41t65.5 -20.5q37 0 64 27t37 62h108q-21 -84 -85.5 -152t-149.5 -68q-45 0 -86.5 20t-78 40t-69.5 20q-37 0 -67.5 -27.5 t-36.5 -60.5h-109z" />
<glyph unicode="&#xd2;" horiz-adv-x="1429" d="M76 489q0 137 31.5 267t96.5 244.5t155 200.5t215 135.5t270 49.5q108 0 196 -33t145 -86t96.5 -123t56 -141t16.5 -143q0 -141 -30 -270t-93 -241t-153 -194.5t-218 -130t-280 -47.5q-107 0 -194.5 31.5t-144 83t-94.5 119.5t-54.5 137.5t-16.5 140.5zM303 494 q0 -100 31 -177.5t100 -126.5t168 -49q105 0 193 43t148 114.5t102 165.5t61.5 193.5t19.5 200.5q0 71 -17 133.5t-52 116t-96.5 84.5t-143.5 31q-84 0 -158.5 -32t-129.5 -87t-99 -127t-71.5 -154t-41.5 -165.5t-14 -163.5zM662 1761h219l84 -278h-154z" />
<glyph unicode="&#xd3;" horiz-adv-x="1429" d="M76 489q0 137 31.5 267t96.5 244.5t155 200.5t215 135.5t270 49.5q108 0 196 -33t145 -86t96.5 -123t56 -141t16.5 -143q0 -141 -30 -270t-93 -241t-153 -194.5t-218 -130t-280 -47.5q-107 0 -194.5 31.5t-144 83t-94.5 119.5t-54.5 137.5t-16.5 140.5zM303 494 q0 -100 31 -177.5t100 -126.5t168 -49q105 0 193 43t148 114.5t102 165.5t61.5 193.5t19.5 200.5q0 71 -17 133.5t-52 116t-96.5 84.5t-143.5 31q-84 0 -158.5 -32t-129.5 -87t-99 -127t-71.5 -154t-41.5 -165.5t-14 -163.5zM780 1483l203 278h219l-268 -278h-154z" />
<glyph unicode="&#xd4;" horiz-adv-x="1429" d="M76 489q0 137 31.5 267t96.5 244.5t155 200.5t215 135.5t270 49.5q108 0 196 -33t145 -86t96.5 -123t56 -141t16.5 -143q0 -141 -30 -270t-93 -241t-153 -194.5t-218 -130t-280 -47.5q-107 0 -194.5 31.5t-144 83t-94.5 119.5t-54.5 137.5t-16.5 140.5zM303 494 q0 -100 31 -177.5t100 -126.5t168 -49q105 0 193 43t148 114.5t102 165.5t61.5 193.5t19.5 200.5q0 71 -17 133.5t-52 116t-96.5 84.5t-143.5 31q-84 0 -158.5 -32t-129.5 -87t-99 -127t-71.5 -154t-41.5 -165.5t-14 -163.5zM590 1483l268 278h186l148 -278h-156l-104 188 l-182 -188h-160z" />
<glyph unicode="&#xd5;" horiz-adv-x="1429" d="M76 489q0 137 31.5 267t96.5 244.5t155 200.5t215 135.5t270 49.5q108 0 196 -33t145 -86t96.5 -123t56 -141t16.5 -143q0 -141 -30 -270t-93 -241t-153 -194.5t-218 -130t-280 -47.5q-107 0 -194.5 31.5t-144 83t-94.5 119.5t-54.5 137.5t-16.5 140.5zM303 494 q0 -100 31 -177.5t100 -126.5t168 -49q105 0 193 43t148 114.5t102 165.5t61.5 193.5t19.5 200.5q0 71 -17 133.5t-52 116t-96.5 84.5t-143.5 31q-84 0 -158.5 -32t-129.5 -87t-99 -127t-71.5 -154t-41.5 -165.5t-14 -163.5zM567 1503q23 87 87.5 154t150.5 67 q43 0 87.5 -20.5t83.5 -41t66 -20.5q37 0 63 27t36 62h110q-21 -83 -86 -151.5t-149 -68.5q-45 0 -86.5 20t-78 40t-69.5 20q-37 0 -67.5 -27.5t-36.5 -60.5h-111z" />
<glyph unicode="&#xd6;" horiz-adv-x="1429" d="M76 489q0 137 31.5 267t96.5 244.5t155 200.5t215 135.5t270 49.5q108 0 196 -33t145 -86t96.5 -123t56 -141t16.5 -143q0 -141 -30 -270t-93 -241t-153 -194.5t-218 -130t-280 -47.5q-107 0 -194.5 31.5t-144 83t-94.5 119.5t-54.5 137.5t-16.5 140.5zM303 494 q0 -100 31 -177.5t100 -126.5t168 -49q105 0 193 43t148 114.5t102 165.5t61.5 193.5t19.5 200.5q0 71 -17 133.5t-52 116t-96.5 84.5t-143.5 31q-84 0 -158.5 -32t-129.5 -87t-99 -127t-71.5 -154t-41.5 -165.5t-14 -163.5zM610 1524l41 198h170l-41 -198h-170zM956 1524 l41 198h170l-43 -198h-168z" />
<glyph unicode="&#xd7;" d="M78 129l383 383l-383 381l115 117l380 -385l383 383l115 -115l-381 -381l381 -383l-115 -115l-381 383l-382 -381z" />
<glyph unicode="&#xd8;" horiz-adv-x="1429" d="M-61 37l200 182q-63 123 -63 270q0 137 31.5 267t96.5 244.5t155 200.5t215 135.5t270 49.5q250 0 391 -172l197 179l71 -84l-203 -189q54 -119 54 -260t-30 -270t-93 -241t-153 -194.5t-218 -130t-280 -47.5q-237 0 -375 152l-191 -176zM305 518q0 -79 23 -141l747 700 q-82 146 -258 146q-98 0 -183 -43t-143.5 -114t-101 -163t-63 -190t-21.5 -195zM362 266q81 -125 240 -125q103 0 189.5 40.5t146.5 108t102 157t62.5 186.5t21.5 198q0 69 -18 130z" />
<glyph unicode="&#xd9;" horiz-adv-x="1355" d="M90 346q0 85 12 146l189 874h219l-186 -872q-15 -77 -15 -125q2 -102 66.5 -162t202.5 -60q149 0 241.5 95t126.5 254l184 870h222l-185 -868q-57 -272 -213.5 -396.5t-414.5 -124.5q-89 0 -167 21t-142.5 64t-102 116t-37.5 168zM625 1761h221l86 -278h-156z" />
<glyph unicode="&#xda;" horiz-adv-x="1355" d="M90 346q0 85 12 146l189 874h219l-186 -872q-15 -77 -15 -125q2 -102 66.5 -162t202.5 -60q149 0 241.5 95t126.5 254l184 870h222l-185 -868q-57 -272 -213.5 -396.5t-414.5 -124.5q-89 0 -167 21t-142.5 64t-102 116t-37.5 168zM727 1483l205 278h219l-268 -278h-156z " />
<glyph unicode="&#xdb;" horiz-adv-x="1355" d="M90 346q0 85 12 146l189 874h219l-186 -872q-15 -77 -15 -125q2 -102 66.5 -162t202.5 -60q149 0 241.5 95t126.5 254l184 870h222l-185 -868q-57 -272 -213.5 -396.5t-414.5 -124.5q-89 0 -167 21t-142.5 64t-102 116t-37.5 168zM543 1483l268 278h188l146 -278h-156 l-102 188l-189 -188h-155z" />
<glyph unicode="&#xdc;" horiz-adv-x="1355" d="M90 346q0 85 12 146l189 874h219l-186 -872q-15 -77 -15 -125q2 -102 66.5 -162t202.5 -60q149 0 241.5 95t126.5 254l184 870h222l-185 -868q-57 -272 -213.5 -396.5t-414.5 -124.5q-89 0 -167 21t-142.5 64t-102 116t-37.5 168zM584 1524l43 198h170l-43 -198h-170z M932 1524l41 198h168l-41 -198h-168z" />
<glyph unicode="&#xdd;" horiz-adv-x="1183" d="M121 1366h246l229 -651l510 651h235l-675 -821l-117 -545h-219l114 545zM657 1483l203 278h221l-268 -278h-156z" />
<glyph unicode="&#xde;" horiz-adv-x="1128" d="M23 0l290 1366h222l-58 -262h240q162 0 263 -98t101 -230q0 -88 -23 -162.5t-63.5 -127t-93 -92t-115.5 -62.5t-126 -34t-128 -11h-229l-59 -287h-221zM338 444h98q74 0 132 7.5t113.5 28t92 54.5t58.5 91t22 133q0 78 -66.5 133t-164.5 55h-179z" />
<glyph unicode="&#xdf;" horiz-adv-x="1163" d="M-309 -451l39 152q52 -10 92 -10q32 0 59 12t47.5 44t33.5 50.5t27.5 69.5t17 61t13.5 62l3 12l219 1045q44 210 180 330t348 120q68 0 131 -15.5t118.5 -47t88.5 -87t33 -128.5q0 -71 -20 -123.5t-52.5 -83t-71.5 -53.5t-78.5 -40t-72 -36t-52.5 -50t-20 -73 q0 -33 20.5 -68.5t51.5 -65t67.5 -65.5t67.5 -69t51.5 -76.5t20.5 -87.5q0 -112 -54.5 -193t-142.5 -119.5t-199 -38.5q-138 0 -254 48l43 149q88 -53 185 -53q93 0 152 48.5t59 139.5q0 41 -28.5 83t-69 79.5t-80.5 76.5t-68.5 89.5t-28.5 103.5q0 59 20.5 102t53 69 t72 46.5t79.5 40t72.5 44t53 64.5t20.5 95q0 80 -54 115t-139 35q-65 0 -116.5 -25t-86 -69t-56.5 -96t-35 -115l-222 -1045q-15 -70 -32 -128t-48.5 -124t-70 -110.5t-98 -74.5t-130.5 -30q-66 0 -159 14z" />
<glyph unicode="&#xe0;" horiz-adv-x="1165" d="M49 301q0 124 40.5 240t113 206.5t167 158.5t207.5 104.5t230 36.5q76 0 159.5 -12t135.5 -29l-131 -592q-56 -246 -56 -414h-208q7 85 36 258q-28 -53 -62 -98.5t-83.5 -89t-116 -68.5t-143.5 -25q-138 0 -213.5 89.5t-75.5 234.5zM266 324q0 -195 158 -195 q116 0 225 136.5t154 332.5l65 283q-41 14 -104 14q-133 0 -249 -84t-182.5 -215.5t-66.5 -271.5zM612 1475h219l87 -279h-156z" />
<glyph unicode="&#xe1;" horiz-adv-x="1165" d="M49 301q0 124 40.5 240t113 206.5t167 158.5t207.5 104.5t230 36.5q76 0 159.5 -12t135.5 -29l-131 -592q-56 -246 -56 -414h-208q7 85 36 258q-28 -53 -62 -98.5t-83.5 -89t-116 -68.5t-143.5 -25q-138 0 -213.5 89.5t-75.5 234.5zM266 324q0 -195 158 -195 q116 0 225 136.5t154 332.5l65 283q-41 14 -104 14q-133 0 -249 -84t-182.5 -215.5t-66.5 -271.5zM709 1196l204 279h220l-269 -279h-155z" />
<glyph unicode="&#xe2;" horiz-adv-x="1165" d="M49 301q0 124 40.5 240t113 206.5t167 158.5t207.5 104.5t230 36.5q76 0 159.5 -12t135.5 -29l-131 -592q-56 -246 -56 -414h-208q7 85 36 258q-28 -53 -62 -98.5t-83.5 -89t-116 -68.5t-143.5 -25q-138 0 -213.5 89.5t-75.5 234.5zM266 324q0 -195 158 -195 q116 0 225 136.5t154 332.5l65 283q-41 14 -104 14q-133 0 -249 -84t-182.5 -215.5t-66.5 -271.5zM494 1196l266 279h188l148 -279h-156l-104 188l-187 -188h-155z" />
<glyph unicode="&#xe3;" horiz-adv-x="1165" d="M49 301q0 124 40.5 240t113 206.5t167 158.5t207.5 104.5t230 36.5q76 0 159.5 -12t135.5 -29l-131 -592q-56 -246 -56 -414h-208q7 85 36 258q-28 -53 -62 -98.5t-83.5 -89t-116 -68.5t-143.5 -25q-138 0 -213.5 89.5t-75.5 234.5zM266 324q0 -195 158 -195 q116 0 225 136.5t154 332.5l65 283q-41 14 -104 14q-133 0 -249 -84t-182.5 -215.5t-66.5 -271.5zM479 1219q23 87 87.5 154t150.5 67q43 0 87.5 -20.5t83.5 -41t66 -20.5q37 0 62 26t35 62h112q-21 -84 -84.5 -151.5t-150.5 -67.5q-45 0 -86 20t-77 40t-69 20 q-36 0 -68 -28t-38 -60h-111z" />
<glyph unicode="&#xe4;" horiz-adv-x="1165" d="M49 301q0 124 40.5 240t113 206.5t167 158.5t207.5 104.5t230 36.5q76 0 159.5 -12t135.5 -29l-131 -592q-56 -246 -56 -414h-208q7 85 36 258q-28 -53 -62 -98.5t-83.5 -89t-116 -68.5t-143.5 -25q-138 0 -213.5 89.5t-75.5 234.5zM266 324q0 -195 158 -195 q116 0 225 136.5t154 332.5l65 283q-41 14 -104 14q-133 0 -249 -84t-182.5 -215.5t-66.5 -271.5zM547 1235l41 199h170l-43 -199h-168zM891 1235l43 199h170l-43 -199h-170z" />
<glyph unicode="&#xe5;" horiz-adv-x="1165" d="M49 301q0 124 40.5 240t113 206.5t167 158.5t207.5 104.5t230 36.5q76 0 159.5 -12t135.5 -29l-131 -592q-56 -246 -56 -414h-208q7 85 36 258q-28 -53 -62 -98.5t-83.5 -89t-116 -68.5t-143.5 -25q-138 0 -213.5 89.5t-75.5 234.5zM266 324q0 -195 158 -195 q116 0 225 136.5t154 332.5l65 283q-41 14 -104 14q-133 0 -249 -84t-182.5 -215.5t-66.5 -271.5zM614 1335q0 81 60.5 139t142.5 58t137.5 -57t55.5 -140q0 -81 -60.5 -138.5t-142.5 -57.5t-137.5 56.5t-55.5 139.5zM696 1335q0 -49 33 -81.5t80 -32.5q48 0 83.5 32.5 t35.5 81.5q0 46 -33 80.5t-80 34.5q-48 0 -83.5 -34t-35.5 -81z" />
<glyph unicode="&#xe6;" horiz-adv-x="1751" d="M49 301q0 124 40.5 240t113 206.5t167 158.5t207.5 104.5t230 36.5q140 0 260 -35l-39 -160q79 85 169.5 138.5t207.5 53.5q55 0 105 -12.5t94 -38.5t70 -72.5t26 -107.5q0 -362 -719 -362q-18 -53 -18 -123q0 -104 62.5 -157.5t168.5 -53.5q74 0 154.5 22.5t142.5 61.5 v-148q-149 -76 -352 -76q-312 0 -367 283q-14 -29 -38 -63.5t-64.5 -74t-88 -71.5t-112 -53t-131.5 -21q-138 0 -213.5 89.5t-75.5 234.5zM266 324q0 -195 158 -195q116 0 225 136.5t154 332.5l65 283q-41 14 -104 14q-133 0 -249 -84t-182.5 -215.5t-66.5 -271.5zM1006 580 q501 0 501 219q0 110 -139 110q-62 0 -120.5 -30t-104 -79.5t-80 -105.5t-57.5 -114z" />
<glyph unicode="&#xe7;" horiz-adv-x="958" d="M59 358q0 142 45.5 267t127 218t202.5 147t264 54q142 0 258 -40l-43 -160q-92 49 -219 49q-74 0 -140.5 -28.5t-116.5 -77t-86.5 -111t-55.5 -133t-19 -140.5q0 -114 67.5 -194t180.5 -80q139 0 248 45l-22 -160q-105 -34 -240 -37l-78 -83q25 8 80 8q47 0 80 -27.5 t33 -73.5q0 -60 -42 -102.5t-97 -60t-113 -17.5q-114 0 -195 41l47 72q79 -35 142 -35q42 0 80 21.5t38 60.5q0 24 -18 37.5t-43 13.5q-49 0 -90 -16l-19 41l107 120q-158 9 -260.5 114t-102.5 267z" />
<glyph unicode="&#xe8;" horiz-adv-x="1042" d="M49 315q0 193 89.5 362t238 268t315.5 99q81 0 147 -21t112 -75t46 -135q0 -362 -718 -362q-19 -55 -19 -123q0 -104 63.5 -157.5t170.5 -53.5q74 0 153 22.5t141 61.5l3 -148q-149 -76 -355 -76q-82 0 -151 20.5t-122.5 61t-83.5 106t-30 150.5zM303 580q502 0 502 219 q0 110 -139 110q-50 0 -98.5 -20t-87.5 -53t-74 -76.5t-60 -88.5t-43 -91zM485 1475h220l86 -279h-156z" />
<glyph unicode="&#xe9;" horiz-adv-x="1042" d="M49 315q0 193 89.5 362t238 268t315.5 99q81 0 147 -21t112 -75t46 -135q0 -362 -718 -362q-19 -55 -19 -123q0 -104 63.5 -157.5t170.5 -53.5q74 0 153 22.5t141 61.5l3 -148q-149 -76 -355 -76q-82 0 -151 20.5t-122.5 61t-83.5 106t-30 150.5zM303 580q502 0 502 219 q0 110 -139 110q-50 0 -98.5 -20t-87.5 -53t-74 -76.5t-60 -88.5t-43 -91zM623 1196l204 279h217l-268 -279h-153z" />
<glyph unicode="&#xea;" horiz-adv-x="1042" d="M49 315q0 193 89.5 362t238 268t315.5 99q81 0 147 -21t112 -75t46 -135q0 -362 -718 -362q-19 -55 -19 -123q0 -104 63.5 -157.5t170.5 -53.5q74 0 153 22.5t141 61.5l3 -148q-149 -76 -355 -76q-82 0 -151 20.5t-122.5 61t-83.5 106t-30 150.5zM303 580q502 0 502 219 q0 110 -139 110q-50 0 -98.5 -20t-87.5 -53t-74 -76.5t-60 -88.5t-43 -91zM403 1196l269 279h188l148 -279h-156l-104 188l-187 -188h-158z" />
<glyph unicode="&#xeb;" horiz-adv-x="1042" d="M49 315q0 193 89.5 362t238 268t315.5 99q81 0 147 -21t112 -75t46 -135q0 -362 -718 -362q-19 -55 -19 -123q0 -104 63.5 -157.5t170.5 -53.5q74 0 153 22.5t141 61.5l3 -148q-149 -76 -355 -76q-82 0 -151 20.5t-122.5 61t-83.5 106t-30 150.5zM303 580q502 0 502 219 q0 110 -139 110q-50 0 -98.5 -20t-87.5 -53t-74 -76.5t-60 -88.5t-43 -91zM465 1235l43 199h170l-43 -199h-170zM811 1235l43 199h168l-41 -199h-170z" />
<glyph unicode="&#xec;" horiz-adv-x="497" d="M14 0l215 1024h207l-215 -1024h-207zM154 1475h219l84 -279h-154z" />
<glyph unicode="&#xed;" horiz-adv-x="497" d="M14 0l215 1024h207l-215 -1024h-207zM260 1196l205 279h217l-266 -279h-156z" />
<glyph unicode="&#xee;" horiz-adv-x="497" d="M14 0l215 1024h207l-215 -1024h-207zM59 1196l267 279h188l148 -279h-156l-107 188l-184 -188h-156z" />
<glyph unicode="&#xef;" horiz-adv-x="497" d="M14 0l215 1024h207l-215 -1024h-207zM117 1235l43 199h170l-43 -199h-170zM463 1235l43 199h168l-41 -199h-170z" />
<glyph unicode="&#xf0;" horiz-adv-x="1181" d="M59 362q0 125 41 243t114 210.5t184 148.5t241 56q192 0 281 -162q-5 101 -47 203.5t-111 169.5l-252 -129l-68 82l222 114q-85 62 -224 91l115 108q81 -19 156.5 -54t117.5 -69l232 121l69 -84l-210 -108q184 -203 184 -453q0 -127 -21.5 -247t-71 -235t-122 -201 t-184 -138t-248.5 -52q-171 0 -284.5 104t-113.5 281zM274 375q0 -111 51.5 -178.5t159.5 -67.5q84 0 157.5 50.5t120 127.5t73 164.5t26.5 167.5q0 109 -54 172t-163 63q-85 0 -157.5 -48.5t-118 -123.5t-70.5 -161t-25 -166z" />
<glyph unicode="&#xf1;" horiz-adv-x="1134" d="M14 0l166 788q30 144 39 236h193l-31 -182q77 104 161.5 153t205.5 49q127 0 201.5 -67.5t74.5 -190.5q0 -45 -14 -120l-140 -666h-206l129 618q16 82 16 117q0 71 -38.5 114.5t-121.5 43.5q-66 0 -119.5 -26.5t-89.5 -72.5t-59.5 -99.5t-36.5 -116.5l-123 -578h-207z M387 1219q23 87 87.5 154t150.5 67q43 0 87.5 -20.5t83.5 -41t66 -20.5q37 0 63 26.5t36 61.5h110q-22 -84 -84.5 -151.5t-148.5 -67.5q-45 0 -86.5 20t-78 40t-69.5 20q-35 0 -66.5 -28t-37.5 -60h-113z" />
<glyph unicode="&#xf2;" horiz-adv-x="1181" d="M59 346q0 171 53 307.5t142 220t199 127t231 43.5q110 0 200.5 -43.5t145.5 -128t55 -194.5q0 -108 -27 -211t-80.5 -191.5t-127.5 -155.5t-175 -105t-216 -38q-169 0 -284.5 101.5t-115.5 267.5zM274 383q0 -120 54 -187t166 -67q90 0 165 55t119 136.5t68 165.5t24 153 q0 119 -58 186.5t-171 67.5q-69 0 -129.5 -33t-103 -87t-73.5 -121t-46 -136.5t-15 -132.5zM463 1475h221l84 -279h-156z" />
<glyph unicode="&#xf3;" horiz-adv-x="1181" d="M59 346q0 171 53 307.5t142 220t199 127t231 43.5q110 0 200.5 -43.5t145.5 -128t55 -194.5q0 -108 -27 -211t-80.5 -191.5t-127.5 -155.5t-175 -105t-216 -38q-169 0 -284.5 101.5t-115.5 267.5zM274 383q0 -120 54 -187t166 -67q90 0 165 55t119 136.5t68 165.5t24 153 q0 119 -58 186.5t-171 67.5q-69 0 -129.5 -33t-103 -87t-73.5 -121t-46 -136.5t-15 -132.5zM602 1196l203 279h221l-268 -279h-156z" />
<glyph unicode="&#xf4;" horiz-adv-x="1181" d="M59 346q0 171 53 307.5t142 220t199 127t231 43.5q110 0 200.5 -43.5t145.5 -128t55 -194.5q0 -108 -27 -211t-80.5 -191.5t-127.5 -155.5t-175 -105t-216 -38q-169 0 -284.5 101.5t-115.5 267.5zM274 383q0 -120 54 -187t166 -67q90 0 165 55t119 136.5t68 165.5t24 153 q0 119 -58 186.5t-171 67.5q-69 0 -129.5 -33t-103 -87t-73.5 -121t-46 -136.5t-15 -132.5zM410 1196l266 279h186l150 -279h-158l-104 188l-185 -188h-155z" />
<glyph unicode="&#xf5;" horiz-adv-x="1181" d="M59 346q0 171 53 307.5t142 220t199 127t231 43.5q110 0 200.5 -43.5t145.5 -128t55 -194.5q0 -108 -27 -211t-80.5 -191.5t-127.5 -155.5t-175 -105t-216 -38q-169 0 -284.5 101.5t-115.5 267.5zM274 383q0 -120 54 -187t166 -67q90 0 165 55t119 136.5t68 165.5t24 153 q0 119 -58 186.5t-171 67.5q-69 0 -129.5 -33t-103 -87t-73.5 -121t-46 -136.5t-15 -132.5zM393 1219q23 87 87.5 154t150.5 67q43 0 87.5 -20.5t83.5 -41t66 -20.5q37 0 63 26.5t36 61.5h110q-21 -84 -84.5 -151.5t-150.5 -67.5q-45 0 -86 20t-77 40t-69 20q-36 0 -68 -28 t-38 -60h-111z" />
<glyph unicode="&#xf6;" horiz-adv-x="1181" d="M59 346q0 171 53 307.5t142 220t199 127t231 43.5q110 0 200.5 -43.5t145.5 -128t55 -194.5q0 -108 -27 -211t-80.5 -191.5t-127.5 -155.5t-175 -105t-216 -38q-169 0 -284.5 101.5t-115.5 267.5zM274 383q0 -120 54 -187t166 -67q90 0 165 55t119 136.5t68 165.5t24 153 q0 119 -58 186.5t-171 67.5q-69 0 -129.5 -33t-103 -87t-73.5 -121t-46 -136.5t-15 -132.5zM444 1235l43 199h168l-41 -199h-170zM791 1235l40 199h170l-40 -199h-170z" />
<glyph unicode="&#xf7;" d="M23 430v162h1046v-162h-1046zM424 133q0 51 35 87t86 36t87 -36t36 -87q0 -52 -35.5 -88.5t-87.5 -36.5q-51 0 -86 36t-35 89zM424 889q0 51 35 87t86 36t87 -36t36 -87t-35.5 -87t-87.5 -36q-51 0 -86 35.5t-35 87.5z" />
<glyph unicode="&#xf8;" horiz-adv-x="1181" d="M-51 16l157 146q-47 80 -47 184q0 171 53 307.5t142 220t199 127t231 43.5q178 0 293 -106l153 143l66 -71l-158 -148q47 -80 47 -184q0 -108 -27 -211t-80.5 -191.5t-127.5 -155.5t-175 -105t-216 -38q-179 0 -293 111l-156 -143zM279 418q0 -58 16 -111l528 498 q-59 88 -182 88q-82 0 -151.5 -44t-114 -114t-69.5 -152.5t-27 -164.5zM317 223q56 -94 177 -94q70 0 131.5 32.5t104 84.5t73.5 116t46.5 126.5t16.5 117.5q3 59 -16 111z" />
<glyph unicode="&#xf9;" horiz-adv-x="1132" d="M63 240q0 51 13 118l141 670h207l-129 -620q-16 -82 -16 -117q0 -73 38 -117.5t121 -44.5q65 0 118.5 27.5t89.5 75t59 101t36 116.5l121 579h209l-166 -790q-29 -142 -39 -238h-192l28 184q-73 -103 -157 -155t-203 -52q-126 0 -202.5 70t-76.5 193zM469 1475h219 l84 -279h-156z" />
<glyph unicode="&#xfa;" horiz-adv-x="1132" d="M63 240q0 51 13 118l141 670h207l-129 -620q-16 -82 -16 -117q0 -73 38 -117.5t121 -44.5q65 0 118.5 27.5t89.5 75t59 101t36 116.5l121 579h209l-166 -790q-29 -142 -39 -238h-192l28 184q-73 -103 -157 -155t-203 -52q-126 0 -202.5 70t-76.5 193zM575 1196l203 279 h219l-268 -279h-154z" />
<glyph unicode="&#xfb;" horiz-adv-x="1132" d="M63 240q0 51 13 118l141 670h207l-129 -620q-16 -82 -16 -117q0 -73 38 -117.5t121 -44.5q65 0 118.5 27.5t89.5 75t59 101t36 116.5l121 579h209l-166 -790q-29 -142 -39 -238h-192l28 184q-73 -103 -157 -155t-203 -52q-126 0 -202.5 70t-76.5 193zM371 1196l266 279 h186l150 -279h-156l-106 188l-185 -188h-155z" />
<glyph unicode="&#xfc;" horiz-adv-x="1132" d="M63 240q0 51 13 118l141 670h207l-129 -620q-16 -82 -16 -117q0 -73 38 -117.5t121 -44.5q65 0 118.5 27.5t89.5 75t59 101t36 116.5l121 579h209l-166 -790q-29 -142 -39 -238h-192l28 184q-73 -103 -157 -155t-203 -52q-126 0 -202.5 70t-76.5 193zM414 1235l43 199 h170l-43 -199h-170zM760 1235l43 199h168l-41 -199h-170z" />
<glyph unicode="&#xfd;" horiz-adv-x="972" d="M-147 -444l45 153q52 -18 94 -18q67 0 118 44t74 103l68 135l-148 1051h220l82 -846l411 846h213l-627 -1174q-41 -77 -77.5 -129t-84 -97t-105.5 -67t-130 -22q-53 0 -153 21zM481 1196l203 279h221l-270 -279h-154z" />
<glyph unicode="&#xfe;" horiz-adv-x="1165" d="M-82 -442l408 1919h209l-132 -617q57 88 150.5 136t198.5 48q315 0 315 -380q0 -97 -22.5 -194t-69 -185.5t-111 -157t-155 -109.5t-193.5 -41q-203 0 -262 185l-127 -604h-209zM307 373q0 -67 16.5 -119t61 -88.5t113.5 -36.5q71 0 131 37t99.5 95.5t68 131.5t41 143.5 t12.5 133.5q0 100 -45.5 161.5t-142.5 61.5q-57 0 -108.5 -24.5t-89.5 -66.5t-68.5 -95t-49.5 -111.5t-29 -115.5t-10 -107z" />
<glyph unicode="&#xff;" horiz-adv-x="972" d="M-147 -444l45 153q52 -18 94 -18q67 0 118 44t74 103l68 135l-148 1051h220l82 -846l411 846h213l-627 -1174q-41 -77 -77.5 -129t-84 -97t-105.5 -67t-130 -22q-53 0 -153 21zM338 1235l41 199h170l-43 -199h-168zM682 1235l43 199h170l-43 -199h-170z" />
<glyph unicode="&#x152;" horiz-adv-x="1841" d="M76 492q0 137 31.5 267t96.5 243.5t155 199t215 135t270 49.5q76 0 180.5 -10t136.5 -10h705l-35 -162h-555l-92 -426h528l-35 -160h-526l-98 -456h577l-37 -162h-706q-28 0 -133 -11.5t-174 -11.5q-107 0 -194.5 32t-144 83.5t-94.5 120t-54.5 138.5t-16.5 141zM303 494 q0 -100 31 -177.5t100 -126.5t168 -49q148 0 252 23l221 1040q-102 21 -258 21q-100 0 -186.5 -46t-145.5 -120.5t-101 -171t-61.5 -196.5t-19.5 -197z" />
<glyph unicode="&#x153;" horiz-adv-x="1816" d="M59 346q0 171 53 307.5t142 220t199 127t231 43.5q128 0 217 -75t115 -174q63 97 186.5 173t255.5 76q81 0 147 -21t112 -75t46 -135q0 -362 -719 -362q-16 -47 -16 -123q0 -104 62.5 -157.5t169.5 -53.5q74 0 154 22.5t142 61.5v-148q-149 -76 -352 -76 q-79 0 -146.5 21.5t-119 73.5t-64.5 127q-62 -101 -177.5 -161.5t-237.5 -60.5q-169 0 -284.5 101.5t-115.5 267.5zM274 383q0 -120 54 -187t166 -67q86 0 158 51t115.5 129.5t67 167t23.5 170.5q0 114 -53 180t-164 66q-69 0 -129.5 -33t-103 -87t-73.5 -121t-46 -136.5 t-15 -132.5zM1071 580q500 0 500 219q0 110 -139 110q-61 0 -120 -30t-104.5 -80t-79.5 -105t-57 -114z" />
<glyph unicode="&#x178;" horiz-adv-x="1183" d="M121 1366h246l229 -651l510 651h235l-675 -821l-117 -545h-219l114 545zM500 1524l43 198h168l-41 -198h-170zM846 1524l41 198h170l-41 -198h-170z" />
<glyph unicode="&#x2c6;" horiz-adv-x="497" d="M59 1196l267 279h188l148 -279h-156l-107 188l-184 -188h-156z" />
<glyph unicode="&#x2dc;" horiz-adv-x="497" d="M55 1219q23 87 87.5 154t150.5 67q43 0 87.5 -20.5t83.5 -41t66 -20.5q34 0 61.5 27t37.5 61h110q-21 -82 -87 -150.5t-146 -68.5q-45 0 -86.5 20t-78 40t-69.5 20q-34 0 -66 -28t-38 -60h-113z" />
<glyph unicode="&#x2000;" horiz-adv-x="907" />
<glyph unicode="&#x2001;" horiz-adv-x="1815" />
<glyph unicode="&#x2002;" horiz-adv-x="907" />
<glyph unicode="&#x2003;" horiz-adv-x="1815" />
<glyph unicode="&#x2004;" horiz-adv-x="605" />
<glyph unicode="&#x2005;" horiz-adv-x="453" />
<glyph unicode="&#x2006;" horiz-adv-x="302" />
<glyph unicode="&#x2007;" horiz-adv-x="302" />
<glyph unicode="&#x2008;" horiz-adv-x="226" />
<glyph unicode="&#x2009;" horiz-adv-x="363" />
<glyph unicode="&#x200a;" horiz-adv-x="100" />
<glyph unicode="&#x2010;" horiz-adv-x="667" d="M61 551l35 168h498l-35 -168h-498z" />
<glyph unicode="&#x2011;" horiz-adv-x="667" d="M61 551l35 168h498l-35 -168h-498z" />
<glyph unicode="&#x2012;" horiz-adv-x="667" d="M61 551l35 168h498l-35 -168h-498z" />
<glyph unicode="&#x2013;" horiz-adv-x="1024" d="M-8 563l31 144h1009l-31 -144h-1009z" />
<glyph unicode="&#x2014;" horiz-adv-x="2048" d="M-8 563l31 144h2033l-31 -144h-2033z" />
<glyph unicode="&#x2018;" horiz-adv-x="575" d="M174 1006l272 471h154l-219 -471h-207z" />
<glyph unicode="&#x2019;" horiz-adv-x="575" d="M184 1006l219 471h207l-272 -471h-154z" />
<glyph unicode="&#x201a;" horiz-adv-x="575" d="M-96 -262l219 473h207l-273 -473h-153z" />
<glyph unicode="&#x201c;" horiz-adv-x="948" d="M174 1006l272 471h154l-219 -471h-207zM547 1006l272 471h154l-219 -471h-207z" />
<glyph unicode="&#x201d;" horiz-adv-x="948" d="M184 1006l219 471h207l-272 -471h-154zM557 1006l219 471h207l-272 -471h-154z" />
<glyph unicode="&#x201e;" horiz-adv-x="948" d="M-96 -262l219 473h207l-273 -473h-153zM276 -262l220 473h206l-272 -473h-154z" />
<glyph unicode="&#x2022;" d="M326 635q0 106 72.5 181t176.5 75t179 -75t75 -181t-75 -181t-179 -75t-176.5 75t-72.5 181z" />
<glyph unicode="&#x2026;" horiz-adv-x="2048" d="M94 0l45 211h217l-45 -211h-217zM766 0l47 211h215l-45 -211h-217zM1440 0l45 211h217l-45 -211h-217z" />
<glyph unicode="&#x202f;" horiz-adv-x="363" />
<glyph unicode="&#x2039;" horiz-adv-x="581" d="M23 524l344 408h178l-338 -408l184 -411h-172z" />
<glyph unicode="&#x203a;" horiz-adv-x="581" d="M-35 113l338 409l-184 410h172l196 -410l-344 -409h-178z" />
<glyph unicode="&#x205f;" horiz-adv-x="453" />
<glyph unicode="&#x20ac;" d="M27 489l49 115h141q12 103 29 158h-158l49 112h146q77 224 259 368t412 144q149 0 263 -51l-70 -161q-91 43 -209 43q-139 0 -257 -101.5t-171 -241.5h512l-49 -112h-504q-20 -74 -33 -158h469l-49 -115h-428q1 -70 17 -129.5t48.5 -108.5t88.5 -76.5t131 -27.5 q123 0 227 39l-6 -176q-100 -33 -254 -33q-230 0 -349.5 138.5t-119.5 373.5h-184z" />
<glyph unicode="&#x2122;" horiz-adv-x="1984" d="M104 1243v123h713v-123h-274v-698h-166v698h-273zM926 545v821h250l262 -653l252 653h249v-821h-155v717l-279 -717h-147l-283 717v-717h-149z" />
<glyph unicode="&#x25fc;" horiz-adv-x="1024" d="M0 0v1024h1024v-1024h-1024z" />
<glyph unicode="&#xfb01;" horiz-adv-x="1140" d="M-246 -451l39 150q29 -8 88 -8q140 0 197 278l190 905h-192l33 150h190l27 121q77 352 370 352q81 0 154 -20l-43 -144q-62 17 -94 17q-137 0 -183 -220l-22 -106h223l-33 -150h-221l-194 -919q-13 -61 -30.5 -115.5t-48 -112t-67.5 -98.5t-92 -67.5t-119 -26.5 q-95 0 -172 14zM657 0l215 1024h209l-215 -1024h-209zM913 1235l41 199h211l-41 -199h-211z" />
<glyph unicode="&#xfb02;" horiz-adv-x="1155" d="M-246 -451l39 150q29 -8 88 -8q140 0 197 278l190 905h-192l33 150h190l27 121q77 352 370 352q81 0 154 -20l-43 -144q-62 17 -94 17q-137 0 -183 -220l-22 -106h223l-33 -150h-221l-194 -919q-13 -61 -30.5 -115.5t-48 -112t-67.5 -98.5t-92 -67.5t-119 -26.5 q-95 0 -172 14zM657 0l314 1477h209l-314 -1477h-209z" />
</font>
</defs>
</svg>
